<svg width="176" height="176" viewBox="0 0 176 176" fill="none" xmlns="http://www.w3.org/2000/svg">
<g clip-path="url(#clip0_466_258)">
<path d="M140.397 4.73853V45.3539" stroke="#FCFBFB" stroke-linecap="round" stroke-dasharray="6 6"/>
<path d="M58.5962 173.292C76.7752 173.292 91.5122 158.442 91.5122 140.123C91.5122 121.804 76.7752 106.954 58.5962 106.954C40.4172 106.954 25.6802 121.804 25.6802 140.123C25.6802 158.442 40.4172 173.292 58.5962 173.292Z" stroke="white" stroke-width="3" stroke-dasharray="2 2"/>
<path d="M58.5962 173.292C76.7752 173.292 91.5122 158.442 91.5122 140.123C91.5122 121.804 76.7752 106.954 58.5962 106.954C40.4172 106.954 25.6802 121.804 25.6802 140.123C25.6802 158.442 40.4172 173.292 58.5962 173.292Z" stroke="white" stroke-width="3" stroke-dasharray="2 2"/>
<path d="M159.359 50.7693H82.498V122.376H159.359V50.7693Z" stroke="white" stroke-width="2"/>
<path d="M136.801 68.5159H59.9399V140.123H136.801V68.5159Z" stroke="white" stroke-width="2"/>
<path d="M82.0581 50.4175L59.4996 68.1643" stroke="white" stroke-width="2"/>
<path d="M160.418 122.514L137.86 140.26" stroke="white" stroke-width="2"/>
<path d="M82.0581 122.514L59.4996 140.26" stroke="white" stroke-width="2"/>
<path d="M159.232 50.4175L136.673 68.1643" stroke="white" stroke-width="2"/>
<path d="M22.7612 174.321L170.548 38.9368" stroke="white" stroke-width="2"/>
<path d="M169.92 42.5232C171.301 42.5232 172.42 41.4039 172.42 40.0232C172.42 38.6425 171.301 37.5232 169.92 37.5232C168.54 37.5232 167.42 38.6425 167.42 40.0232C167.42 41.4039 168.54 42.5232 169.92 42.5232Z" fill="white"/>
<path fill-rule="evenodd" clip-rule="evenodd" d="M151.298 34.3252C153.625 34.4364 155.886 34.3657 158.029 34.1595C161.982 33.7792 165.548 32.9368 168.404 31.9128L168.47 31.8894L152.4 45.3536H106.71L98.3883 28.189C100.198 26.6622 103.146 24.9566 106.963 23.9355V22.5381C102.486 23.6753 99.0729 25.7257 97.1076 27.5175L96.7329 27.8591L96.9547 28.3166L105.688 46.3277L105.872 46.7075H106.291H152.642H152.885L153.072 46.551L173.618 29.3362C174.004 29.0567 174.337 28.7762 174.614 28.4981L173.709 27.499L172.793 28.2659C171.702 29.0471 170.055 29.8837 167.954 30.6372C165.205 31.6228 161.748 32.4417 157.902 32.8117C155.796 33.0144 153.577 33.082 151.298 32.9699V34.3252Z" fill="white"/>
<path d="M106.963 46.0307V8.12298L116.367 3.38452L128.459 8.12298V46.0307" stroke="white"/>
<path d="M116.367 4.06152V46.0308" stroke="white"/>
<path d="M117.635 9.34628C117.981 9.48179 118.37 9.30917 118.505 8.96073C118.639 8.61231 118.468 8.21999 118.122 8.0845L117.635 9.34628ZM121.145 9.26911C120.799 9.1336 120.41 9.30622 120.275 9.65466C120.141 10.0031 120.312 10.3954 120.658 10.5309L121.145 9.26911ZM123.681 11.7155C124.027 11.851 124.416 11.6784 124.55 11.33C124.685 10.9815 124.513 10.5892 124.168 10.4537L123.681 11.7155ZM127.191 11.6383C126.845 11.5028 126.456 11.6754 126.321 12.0239C126.187 12.3723 126.358 12.7646 126.704 12.9001L127.191 11.6383ZM116.124 8.75397L117.635 9.34628L118.122 8.0845L116.611 7.49219L116.124 8.75397ZM120.658 10.5309L123.681 11.7155L124.168 10.4537L121.145 9.26911L120.658 10.5309ZM126.704 12.9001L128.215 13.4924L128.702 12.2306L127.191 11.6383L126.704 12.9001Z" fill="white"/>
<path d="M117.635 20.8538C117.981 20.9894 118.37 20.8168 118.505 20.4683C118.639 20.1199 118.468 19.7276 118.122 19.5921L117.635 20.8538ZM121.145 20.7767C120.799 20.6412 120.41 20.8138 120.275 21.1623C120.141 21.5106 120.312 21.9029 120.658 22.0385L121.145 20.7767ZM123.681 23.2231C124.027 23.3586 124.416 23.186 124.55 22.8375C124.685 22.4892 124.513 22.0968 124.168 21.9613L123.681 23.2231ZM127.191 23.1459C126.845 23.0104 126.456 23.183 126.321 23.5315C126.187 23.8798 126.358 24.2722 126.704 24.4077L127.191 23.1459ZM116.124 20.2615L117.635 20.8538L118.122 19.5921L116.611 18.9998L116.124 20.2615ZM120.658 22.0385L123.681 23.2231L124.168 21.9613L121.145 20.7767L120.658 22.0385ZM126.704 24.4077L128.215 25L128.702 23.7382L127.191 23.1459L126.704 24.4077Z" fill="white"/>
<path d="M119.146 25.5079C119.492 25.6434 119.882 25.4708 120.016 25.1223C120.15 24.774 119.979 24.3817 119.633 24.2461L119.146 25.5079ZM125.679 26.6154C125.333 26.4798 124.944 26.6525 124.81 27.0009C124.675 27.3493 124.847 27.7416 125.192 27.8772L125.679 26.6154ZM116.124 24.3233L119.146 25.5079L119.633 24.2461L116.611 23.0615L116.124 24.3233ZM125.192 27.8772L128.215 29.0618L128.702 27.8L125.679 26.6154L125.192 27.8772Z" fill="white"/>
<path d="M117.635 35.7462C117.981 35.8817 118.37 35.7091 118.505 35.3606C118.639 35.0123 118.468 34.6199 118.122 34.4844L117.635 35.7462ZM121.145 35.669C120.799 35.5335 120.41 35.7061 120.275 36.0546C120.141 36.4029 120.312 36.7953 120.658 36.9308L121.145 35.669ZM123.681 38.1154C124.027 38.2509 124.416 38.0783 124.55 37.7298C124.685 37.3815 124.513 36.9891 124.168 36.8536L123.681 38.1154ZM127.191 38.0382C126.845 37.9027 126.456 38.0753 126.321 38.4238C126.187 38.7722 126.358 39.1645 126.704 39.3L127.191 38.0382ZM116.124 35.1539L117.635 35.7462L118.122 34.4844L116.611 33.8921L116.124 35.1539ZM120.658 36.9308L123.681 38.1154L124.168 36.8536L121.145 35.669L120.658 36.9308ZM126.704 39.3L128.215 39.8923L128.702 38.6306L127.191 38.0382L126.704 39.3Z" fill="white"/>
<path d="M119.146 40.4C119.492 40.5355 119.882 40.3629 120.016 40.0144C120.15 39.6661 119.979 39.2737 119.633 39.1382L119.146 40.4ZM125.679 41.5075C125.333 41.3719 124.944 41.5446 124.81 41.893C124.675 42.2414 124.847 42.6337 125.192 42.7692L125.679 41.5075ZM116.124 39.2154L119.146 40.4L119.633 39.1382L116.611 37.9536L116.124 39.2154ZM125.192 42.7692L128.215 43.9539L128.702 42.6921L125.679 41.5075L125.192 42.7692Z" fill="white"/>
<path d="M119.146 13.3231C119.492 13.4586 119.882 13.286 120.016 12.9376C120.15 12.5891 119.979 12.1968 119.633 12.0613L119.146 13.3231ZM125.679 14.4306C125.333 14.295 124.944 14.4676 124.81 14.8161C124.675 15.1645 124.847 15.5568 125.192 15.6923L125.679 14.4306ZM116.124 12.1385L119.146 13.3231L119.633 12.0613L116.611 10.8767L116.124 12.1385ZM125.192 15.6923L128.215 16.877L128.702 15.6152L125.679 14.4306L125.192 15.6923Z" fill="white"/>
<path d="M116.367 23.0154L107.634 27.0769" stroke="white" stroke-linecap="round" stroke-dasharray="2 2"/>
<path d="M116.367 37.9077L107.634 41.9693" stroke="white" stroke-linecap="round" stroke-dasharray="2 2"/>
<path d="M129.131 18.9539L137.863 22.3385V45.3539" stroke="white" stroke-linecap="round"/>
<path d="M137.863 23.0153V5.4153L145.253 1.35376L150.627 5.4153V45.3538" stroke="white" stroke-linecap="round"/>
<path d="M145.252 2.03076V45.3538" stroke="white" stroke-linecap="round"/>
<path d="M143.084 3.38452V45.3538" stroke="#FCFBFB" stroke-linecap="round" stroke-dasharray="2 2"/>
<path d="M103.101 169V154.455H106.616V160.293H112.348V154.455H115.857V169H112.348V163.155H106.616V169H103.101ZM123.161 169.206C122.02 169.206 121.035 168.981 120.207 168.531C119.383 168.077 118.748 167.43 118.303 166.592C117.863 165.75 117.643 164.748 117.643 163.588C117.643 162.461 117.865 161.476 118.31 160.634C118.755 159.786 119.383 159.128 120.192 158.659C121.002 158.186 121.956 157.949 123.055 157.949C123.831 157.949 124.541 158.07 125.185 158.311C125.829 158.553 126.386 158.91 126.854 159.384C127.323 159.857 127.688 160.442 127.948 161.138C128.209 161.829 128.339 162.622 128.339 163.517V164.384H118.857V162.366H125.107C125.103 161.997 125.015 161.668 124.844 161.379C124.674 161.09 124.44 160.866 124.141 160.705C123.848 160.539 123.509 160.456 123.126 160.456C122.737 160.456 122.389 160.544 122.082 160.719C121.774 160.889 121.53 161.124 121.35 161.422C121.17 161.715 121.076 162.049 121.066 162.423V164.476C121.066 164.921 121.154 165.312 121.329 165.648C121.504 165.979 121.753 166.237 122.075 166.422C122.397 166.607 122.78 166.699 123.225 166.699C123.533 166.699 123.812 166.656 124.063 166.571C124.314 166.486 124.53 166.36 124.71 166.195C124.889 166.029 125.024 165.825 125.114 165.584L128.303 165.676C128.171 166.391 127.879 167.014 127.43 167.544C126.985 168.07 126.4 168.479 125.675 168.773C124.951 169.062 124.113 169.206 123.161 169.206ZM133.586 154.455V169H130.113V154.455H133.586ZM135.796 169V158.091H139.269V169H135.796ZM137.536 156.82C137.049 156.82 136.629 156.659 136.279 156.337C135.929 156.01 135.754 155.617 135.754 155.158C135.754 154.703 135.929 154.315 136.279 153.993C136.629 153.666 137.049 153.503 137.536 153.503C138.029 153.503 138.448 153.666 138.793 153.993C139.144 154.315 139.319 154.703 139.319 155.158C139.319 155.617 139.144 156.01 138.793 156.337C138.448 156.659 138.029 156.82 137.536 156.82ZM146.572 169.206C145.426 169.206 144.441 168.972 143.618 168.503C142.798 168.029 142.166 167.371 141.721 166.528C141.281 165.681 141.061 164.698 141.061 163.581C141.061 162.459 141.281 161.476 141.721 160.634C142.166 159.786 142.798 159.128 143.618 158.659C144.441 158.186 145.426 157.949 146.572 157.949C147.718 157.949 148.7 158.186 149.52 158.659C150.343 159.128 150.975 159.786 151.416 160.634C151.861 161.476 152.083 162.459 152.083 163.581C152.083 164.698 151.861 165.681 151.416 166.528C150.975 167.371 150.343 168.029 149.52 168.503C148.7 168.972 147.718 169.206 146.572 169.206ZM146.593 166.585C147.01 166.585 147.363 166.457 147.652 166.202C147.94 165.946 148.161 165.591 148.312 165.136C148.468 164.682 148.547 164.156 148.547 163.56C148.547 162.954 148.468 162.423 148.312 161.969C148.161 161.514 147.94 161.159 147.652 160.903C147.363 160.648 147.01 160.52 146.593 160.52C146.163 160.52 145.798 160.648 145.5 160.903C145.206 161.159 144.981 161.514 144.825 161.969C144.673 162.423 144.598 162.954 144.598 163.56C144.598 164.156 144.673 164.682 144.825 165.136C144.981 165.591 145.206 165.946 145.5 166.202C145.798 166.457 146.163 166.585 146.593 166.585ZM163.387 161.422L160.198 161.507C160.165 161.28 160.075 161.079 159.928 160.903C159.781 160.723 159.589 160.584 159.353 160.484C159.121 160.38 158.851 160.328 158.543 160.328C158.141 160.328 157.797 160.409 157.513 160.57C157.234 160.731 157.096 160.948 157.101 161.223C157.096 161.436 157.182 161.621 157.357 161.777C157.537 161.933 157.856 162.059 158.316 162.153L160.418 162.551C161.507 162.759 162.317 163.105 162.847 163.588C163.382 164.071 163.652 164.71 163.657 165.506C163.652 166.254 163.429 166.905 162.989 167.459C162.553 168.013 161.957 168.444 161.199 168.751C160.442 169.054 159.575 169.206 158.6 169.206C157.042 169.206 155.813 168.886 154.914 168.247C154.019 167.603 153.507 166.741 153.38 165.662L156.81 165.577C156.886 165.974 157.082 166.277 157.4 166.486C157.717 166.694 158.122 166.798 158.614 166.798C159.059 166.798 159.421 166.715 159.701 166.55C159.98 166.384 160.122 166.164 160.127 165.889C160.122 165.643 160.013 165.446 159.8 165.3C159.587 165.148 159.253 165.03 158.799 164.945L156.895 164.582C155.801 164.384 154.987 164.017 154.452 163.482C153.917 162.942 153.652 162.255 153.657 161.422C153.652 160.693 153.846 160.07 154.239 159.554C154.632 159.033 155.191 158.635 155.915 158.361C156.64 158.086 157.494 157.949 158.479 157.949C159.956 157.949 161.121 158.259 161.973 158.879C162.826 159.495 163.297 160.342 163.387 161.422Z" fill="white"/>
</g>
<defs>
<clipPath id="clip0_466_258">
<rect width="176" height="176" fill="white"/>
</clipPath>
</defs>
</svg>
