<svg width="86" height="84" viewBox="0 0 86 84" fill="none" xmlns="http://www.w3.org/2000/svg">
<g clip-path="url(#clip0_403_119)">
<path d="M68.603 2.26147V21.6461" stroke="white" stroke-linecap="round" stroke-dasharray="6 6"/>
<path d="M28.6323 82.7077C37.5152 82.7077 44.7163 75.62 44.7163 66.8769C44.7163 58.1338 37.5152 51.0461 28.6323 51.0461C19.7494 51.0461 12.5483 58.1338 12.5483 66.8769C12.5483 75.62 19.7494 82.7077 28.6323 82.7077Z" stroke="white" stroke-width="3" stroke-dasharray="2 2"/>
<path d="M28.6323 82.7077C37.5152 82.7077 44.7163 75.62 44.7163 66.8769C44.7163 58.1338 37.5152 51.0461 28.6323 51.0461C19.7494 51.0461 12.5483 58.1338 12.5483 66.8769C12.5483 75.62 19.7494 82.7077 28.6323 82.7077Z" stroke="white" stroke-width="3" stroke-dasharray="2 2"/>
<path d="M77.8688 24.2307H40.3115V58.4068H77.8688V24.2307Z" stroke="white" stroke-width="2"/>
<path d="M66.8458 32.7009H29.2886V66.877H66.8458V32.7009Z" stroke="white" stroke-width="2"/>
<path d="M40.0967 24.063L29.0738 32.5331" stroke="white" stroke-width="2"/>
<path d="M78.3862 58.4724L67.3633 66.9425" stroke="white" stroke-width="2"/>
<path d="M40.0967 58.4724L29.0738 66.9425" stroke="white" stroke-width="2"/>
<path d="M77.8066 24.063L66.7837 32.5331" stroke="white" stroke-width="2"/>
<path d="M11.1221 83.1988L83.3361 18.5835" stroke="white" stroke-width="2"/>
<path d="M83.7771 20.3537C84.8648 20.3537 85.7465 19.4859 85.7465 18.4153C85.7465 17.3447 84.8648 16.4768 83.7771 16.4768C82.6894 16.4768 81.8076 17.3447 81.8076 18.4153C81.8076 19.4859 82.6894 20.3537 83.7771 20.3537Z" fill="white"/>
<path fill-rule="evenodd" clip-rule="evenodd" d="M73.9297 16.3825C75.0668 16.4356 76.1716 16.4018 77.2187 16.3034C79.1501 16.1219 80.8924 15.7199 82.2881 15.2311L82.3203 15.22L74.468 21.6461H52.1425L48.076 13.4539C48.96 12.7252 50.4008 11.9111 52.2659 11.4238V10.7568C50.0782 11.2996 48.4105 12.2782 47.4502 13.1334L47.2671 13.2964L47.3755 13.5148L51.6427 22.111L51.7327 22.2922H51.9376H74.5862H74.705L74.7963 22.2175L84.836 14.0014C85.0244 13.868 85.1872 13.7341 85.3224 13.6014L84.8806 13.1245L84.4329 13.4906C83.8998 13.8634 83.095 14.2627 82.0682 14.6223C80.725 15.0927 79.0359 15.4836 77.1564 15.6602C76.1276 15.7569 75.0431 15.7891 73.9297 15.7356V16.3825Z" fill="white"/>
<path d="M52.2661 21.9693V3.87702L56.8615 1.61548L62.7699 3.87702V21.9693" stroke="white"/>
<path d="M56.8613 1.93848V21.9692" stroke="white"/>
<path d="M57.4807 4.46084C57.6497 4.52551 57.84 4.44312 57.9057 4.27682C57.9713 4.11053 57.8876 3.92329 57.7187 3.85862L57.4807 4.46084ZM59.1958 4.424C59.0268 4.35933 58.8366 4.44172 58.7709 4.60802C58.7052 4.77431 58.7889 4.96155 58.9578 5.02622L59.1958 4.424ZM60.4349 5.5916C60.6039 5.65628 60.7942 5.57389 60.8599 5.40759C60.9255 5.2413 60.8418 5.05406 60.6729 4.98939L60.4349 5.5916ZM62.15 5.55477C61.981 5.4901 61.7908 5.57248 61.7251 5.73879C61.6594 5.90508 61.7431 6.09232 61.912 6.15699L62.15 5.55477ZM56.7422 4.17814L57.4807 4.46084L57.7187 3.85862L56.9802 3.57593L56.7422 4.17814ZM58.9578 5.02622L60.4349 5.5916L60.6729 4.98939L59.1958 4.424L58.9578 5.02622ZM61.912 6.15699L62.6506 6.43968L62.8886 5.83747L62.15 5.55477L61.912 6.15699Z" fill="white"/>
<path d="M57.4807 9.95302C57.6497 10.0177 57.84 9.93532 57.9057 9.769C57.9713 9.60274 57.8876 9.41549 57.7187 9.35081L57.4807 9.95302ZM59.1958 9.91619C59.0268 9.85151 58.8366 9.9339 58.7709 10.1002C58.7052 10.2665 58.7889 10.4537 58.9578 10.5184L59.1958 9.91619ZM60.4349 11.0838C60.6039 11.1485 60.7942 11.0661 60.8599 10.8998C60.9255 10.7335 60.8418 10.5463 60.6729 10.4816L60.4349 11.0838ZM62.15 11.047C61.981 10.9823 61.7908 11.0647 61.7251 11.231C61.6594 11.3972 61.7431 11.5845 61.912 11.6492L62.15 11.047ZM56.7422 9.67033L57.4807 9.95302L57.7187 9.35081L56.9802 9.06812L56.7422 9.67033ZM58.9578 10.5184L60.4349 11.0838L60.6729 10.4816L59.1958 9.91619L58.9578 10.5184ZM61.912 11.6492L62.6506 11.9319L62.8886 11.3297L62.15 11.047L61.912 11.6492Z" fill="white"/>
<path d="M58.2193 12.1742C58.3883 12.2389 58.5785 12.1565 58.6442 11.9902C58.7099 11.8239 58.6262 11.6367 58.4573 11.572L58.2193 12.1742ZM61.4115 12.7027C61.2425 12.6381 61.0522 12.7205 60.9866 12.8868C60.9209 13.053 61.0046 13.2403 61.1735 13.305L61.4115 12.7027ZM56.7422 11.6088L58.2193 12.1742L58.4573 11.572L56.9802 11.0066L56.7422 11.6088ZM61.1735 13.305L62.6506 13.8703L62.8886 13.2681L61.4115 12.7027L61.1735 13.305Z" fill="white"/>
<path d="M57.4807 17.0607C57.6497 17.1254 57.84 17.043 57.9057 16.8767C57.9713 16.7104 57.8876 16.5232 57.7187 16.4585L57.4807 17.0607ZM59.1958 17.0239C59.0268 16.9592 58.8366 17.0416 58.7709 17.2079C58.7052 17.3741 58.7889 17.5614 58.9578 17.6261L59.1958 17.0239ZM60.4349 18.1915C60.6039 18.2561 60.7942 18.1738 60.8599 18.0074C60.9255 17.8412 60.8418 17.6539 60.6729 17.5892L60.4349 18.1915ZM62.15 18.1546C61.981 18.0899 61.7908 18.1723 61.7251 18.3387C61.6594 18.5049 61.7431 18.6922 61.912 18.7568L62.15 18.1546ZM56.7422 16.778L57.4807 17.0607L57.7187 16.4585L56.9802 16.1758L56.7422 16.778ZM58.9578 17.6261L60.4349 18.1915L60.6729 17.5892L59.1958 17.0239L58.9578 17.6261ZM61.912 18.7568L62.6506 19.0395L62.8886 18.4373L62.15 18.1546L61.912 18.7568Z" fill="white"/>
<path d="M58.2193 19.2819C58.3883 19.3465 58.5785 19.2642 58.6442 19.0978C58.7099 18.9316 58.6262 18.7443 58.4573 18.6796L58.2193 19.2819ZM61.4115 19.8104C61.2425 19.7457 61.0522 19.8281 60.9866 19.9944C60.9209 20.1607 61.0046 20.3479 61.1735 20.4126L61.4115 19.8104ZM56.7422 18.7165L58.2193 19.2819L58.4573 18.6796L56.9802 18.1143L56.7422 18.7165ZM61.1735 20.4126L62.6506 20.978L62.8886 20.3758L61.4115 19.8104L61.1735 20.4126Z" fill="white"/>
<path d="M58.2193 6.35876C58.3883 6.42344 58.5785 6.34105 58.6442 6.17475C58.7099 6.00846 58.6262 5.82121 58.4573 5.75655L58.2193 6.35876ZM61.4115 6.88732C61.2425 6.82264 61.0522 6.90502 60.9866 7.07134C60.9209 7.2376 61.0046 7.42485 61.1735 7.48953L61.4115 6.88732ZM56.7422 5.79338L58.2193 6.35876L58.4573 5.75655L56.9802 5.19116L56.7422 5.79338ZM61.1735 7.48953L62.6506 8.05492L62.8886 7.4527L61.4115 6.88732L61.1735 7.48953Z" fill="white"/>
<path d="M56.8614 10.9846L52.5942 12.9231" stroke="white" stroke-linecap="round" stroke-dasharray="2 2"/>
<path d="M56.8614 18.0923L52.5942 20.0307" stroke="white" stroke-linecap="round" stroke-dasharray="2 2"/>
<path d="M63.0981 9.04614L67.3651 10.6615V21.6461" stroke="white" stroke-linecap="round"/>
<path d="M67.3647 10.9847V2.5847L70.9754 0.64624L73.6014 2.5847V21.6462" stroke="white" stroke-linecap="round"/>
<path d="M70.9756 0.969238V21.6462" stroke="white" stroke-linecap="round"/>
<path d="M69.916 1.61548V21.6462" stroke="white" stroke-linecap="round" stroke-dasharray="2 2"/>
</g>
<defs>
<clipPath id="clip0_403_119">
<rect width="86" height="84" fill="white"/>
</clipPath>
</defs>
</svg>
